# xmcd
#
# Track frame offsets:
#  150
#  23931
#  55560
#  76325
#  93395
#  102033
#  117629
#  138348
#  144942
#  162797
#  183515
#  192956
#
# Disc length: 2755 seconds
#
# Revision: 0
# Processed by: cddbd v1.5.1PL2 Copyright (c) Steve Scherf et al.
# Submitted via: Collectorz.com_Music_Collector 6.11
#
DISCID=970ac10c
DTITLE=Tom Russell and Andrew Hardin - Columbus Music Hall, Columbus - 20/4/2001 [CD1)
DYEAR=2001
DGENRE=Alt Country
TTITLE0=Tower Of Song
TTITLE1=Angel Of Lyon
TTITLE2=The Man From God Knows Where
TTITLE3=Sitting Bull In Venice
TTITLE4=Intro To...
TTITLE5=Throwing Horseshoes At The Moon
TTITLE6=What Happened To The Kid In The Baseball Cap
TTITLE7=Intro To...
TTITLE8=Next Thing Smoking
TTITLE9=The Santa Fe At Midnight
TTITLE10=Intro...
TTITLE11=When Sinatra Played Juarez
EXTD=
EXTT0=
EXTT1=
EXTT2=
EXTT3=
EXTT4=
EXTT5=
EXTT6=
EXTT7=
EXTT8=
EXTT9=
EXTT10=
EXTT11=
PLAYORDER=
